<svg xmlns="http://www.w3.org/2000/svg" width="136.839" height="28.774" viewBox="0 0 136.839 28.774"><script xmlns=""/><g transform="translate(-355.713 -560.726)"><g transform="translate(443.552 577.063)"><path d="M-43.3-3.1h0c2.2.5,4.9,1.4,4.9,4.3A3.587,3.587,0,0,1-40,4.3a5.953,5.953,0,0,1-3.9,1.1c-2.7,0-4.6-1.1-5.6-3a.192.192,0,0,1,.1-.3L-47.3.9A.192.192,0,0,1-47,1h0a2.959,2.959,0,0,0,3,1.8c1.6,0,2.4-.5,2.4-1.6,0-.9-1.2-1.4-2.6-1.8C-46.2-1.1-49-2-49-4.9A4.1,4.1,0,0,1-47.6-8,6.127,6.127,0,0,1-39-6.6h0l.1.1a.192.192,0,0,1-.1.3h0L-41-5a.192.192,0,0,1-.3-.1h0a2.851,2.851,0,0,0-2.5-1.4c-1.1,0-2,.5-2,1.5-.1,1,1.1,1.5,2.5,1.9" fill="#1f2d52"/><path d="M-33-.5a.215.215,0,0,0-.2.2h0v.1a4.208,4.208,0,0,0,4.4,3,4.354,4.354,0,0,0,3.5-1.5.367.367,0,0,1,.3-.1l2.1,1.2c.1.1.2.2.1.3h0a6.9,6.9,0,0,1-5.9,2.8,7.609,7.609,0,0,1-5.5-2.1A7.488,7.488,0,0,1-34.2-7a7.009,7.009,0,0,1,5.3-2.1,6.372,6.372,0,0,1,5,2.1,7.69,7.69,0,0,1,2,5.2,3.4,3.4,0,0,1-.1,1,.215.215,0,0,1-.2.2ZM-25.4-3a.215.215,0,0,0,.2-.2v-.1a3.779,3.779,0,0,0-3.9-3.1,3.991,3.991,0,0,0-4.1,3.1c0,.1,0,.3.2.3h7.6Z" fill="#1f2d52"/><path d="M-14-3.1h0c2.2.5,4.9,1.4,4.9,4.3a3.587,3.587,0,0,1-1.6,3.1,5.953,5.953,0,0,1-3.9,1.1c-2.7,0-4.6-1.1-5.6-3a.192.192,0,0,1,.1-.3L-18,.9a.192.192,0,0,1,.3.1h0a2.959,2.959,0,0,0,3,1.8c1.6,0,2.4-.5,2.4-1.6,0-.9-1.2-1.4-2.6-1.8C-17-1.1-19.8-2-19.7-4.9A4.1,4.1,0,0,1-18.3-8,6.127,6.127,0,0,1-9.7-6.6h0l.1.1a.192.192,0,0,1-.1.3h0L-11.8-5a.192.192,0,0,1-.3-.1h0a2.851,2.851,0,0,0-2.5-1.4c-1.1,0-2,.5-2,1.5s1.1,1.5,2.6,1.9" fill="#1f2d52"/><path d="M4.9-8.8H7.4a.215.215,0,0,1,.2.2V4.9a.215.215,0,0,1-.2.2H4.9c-.2,0-.3-.1-.3-.2h0V3.8a.215.215,0,0,0-.2-.2c-.1,0-.1,0-.2.1A5.671,5.671,0,0,1-.2,5.5,6.505,6.505,0,0,1-5.1,3.4,7.689,7.689,0,0,1-5.1-7,6.505,6.505,0,0,1-.2-9.1,5.534,5.534,0,0,1,4.2-7.3a.188.188,0,0,0,.3,0,.349.349,0,0,0,.1-.2V-8.6c0-.1.1-.2.3-.2M.2,2.6A4.01,4.01,0,0,0,3.3,1.3,4.284,4.284,0,0,0,4.5-1.9,3.759,3.759,0,0,0,3.4-5,4.528,4.528,0,0,0-2.9-5,4.144,4.144,0,0,0-4.1-1.8,4.717,4.717,0,0,0-2.9,1.4,4.064,4.064,0,0,0,.2,2.6" fill="#1f2d52"/><path d="M31.8-3.5V4.9a.215.215,0,0,1-.2.2H29.1a.215.215,0,0,1-.2-.2h0V-3.3c0-1.9-1-3-2.7-3-1.9,0-3,1.2-3,3.7V4.9a.215.215,0,0,1-.2.2H20.5a.215.215,0,0,1-.2-.2h0V-3.3c0-1.9-.9-3-2.6-3-1.8,0-3.1,1.3-3.1,3.7V4.9a.215.215,0,0,1-.2.2H11.9a.215.215,0,0,1-.2-.2h0V-8.5a.215.215,0,0,1,.2-.2h2.5a.215.215,0,0,1,.2.2h0v.7a.215.215,0,0,0,.2.2c.1,0,.1,0,.2-.1a4.754,4.754,0,0,1,3.6-1.5,4.241,4.241,0,0,1,3.8,1.9.367.367,0,0,0,.3.1h0l.1-.1a4.644,4.644,0,0,1,4.1-1.9c2.8.1,4.9,2.3,4.9,5.7" fill="#1f2d52"/><path d="M38.1-.5a.215.215,0,0,0-.2.2v.1a4.208,4.208,0,0,0,4.4,3,4.354,4.354,0,0,0,3.5-1.5.367.367,0,0,1,.3-.1l2.1,1.2c.1.1.2.2.1.3h0a6.9,6.9,0,0,1-5.9,2.8,7.609,7.609,0,0,1-5.5-2.1A7.491,7.491,0,0,1,36.7-7,7.009,7.009,0,0,1,42-9.1,6.372,6.372,0,0,1,47-7a7.69,7.69,0,0,1,2,5.2,3.4,3.4,0,0,1-.1,1,.215.215,0,0,1-.2.2ZM45.6-3a.215.215,0,0,0,.2-.2v-.1a3.779,3.779,0,0,0-3.9-3.1,3.991,3.991,0,0,0-4.1,3.1c0,.1,0,.3.2.3h7.6Z" fill="#1f2d52"/></g><path d="M375.3,589.1a2.112,2.112,0,0,1-2.1-2.1,2.2,2.2,0,0,1,.6-1.5l6.6-6.6a2.051,2.051,0,0,1,2.9,2.9l-6.6,6.6A1.622,1.622,0,0,1,375.3,589.1Z" fill="#55e5bc"/><path d="M370.1,589.5a.75.75,0,0,1-.5-.1l-7.3-1.9a5.586,5.586,0,0,1-4-4l-2.4-9.1a5.467,5.467,0,0,1,1.5-5.4l6.6-6.6a5.7,5.7,0,0,1,5.4-1.5l9.1,2.4a5.586,5.586,0,0,1,4,4l1.9,7.3a2.062,2.062,0,0,1-4,1l-1.9-7.3a1.285,1.285,0,0,0-1-1l-9.1-2.4a1.419,1.419,0,0,0-1.4.4l-6.6,6.6a1.485,1.485,0,0,0-.4,1.4l2.4,9.1a1.285,1.285,0,0,0,1,1l7.3,1.9a2.06,2.06,0,0,1,1.5,2.5,2.288,2.288,0,0,1-2.1,1.7Z" fill="#1f2d52"/></g><script xmlns=""/></svg>